# xmcd
#
# Track frame offsets:
#	150
#	10515
#	15170
#	24323
#	30784
#	41534
#	52641
#
# Disc length: 752 seconds
#
# Revision: 0
# Processed by: cddbd v1.4PL0 Copyright (c) Steve Scherf et al.
# Submitted via: dBpowerAMP V4.0
#
DISCID=2e02ee07
DTITLE=Bobby Sowell - Blues on the Bluff
DYEAR=2003
DGENRE=Blues
TTITLE0=Always on my Mind
TTITLE1=Honey Don't
TTITLE2=Raining Down the Blues
TTITLE3=Rockin Rhythm and Blues
TTITLE4=Stormy
TTITLE5=Summer Time Blues
TTITLE6=You Don't have to 
EXTD=Bobby Sowell "Blues on the Bluff" Memphis - with  Big River Band
EXTT0=
EXTT1=
EXTT2=
EXTT3=
EXTT4=
EXTT5=
EXTT6=
PLAYORDER=
